<svg width="16" height="14" viewBox="0 0 16 14" fill="none" xmlns="http://www.w3.org/2000/svg">
<path d="M13.602 0H2.01742C0.907909 0 0 0.907785 0 2.01742C0 3.12694 0.907785 4.03485 2.01742 4.03485H13.602C14.7115 4.03485 15.6193 3.12706 15.6193 2.01742C15.6193 0.907909 14.7115 0 13.6019 0H13.602ZM13.5933 2.72978C13.1993 2.72978 12.88 2.4107 12.88 2.0173C12.88 1.6239 13.1994 1.30507 13.5933 1.30507C13.9873 1.30507 14.3066 1.62414 14.3066 2.0173C14.3066 2.41095 13.9873 2.72978 13.5933 2.72978Z" fill="#00A3DF"/>
<path d="M13.602 4.98291H2.01742C0.907909 4.98291 0 5.89069 0 7.00033C0 8.10985 0.907785 9.01776 2.01742 9.01776H13.602C14.7115 9.01776 15.6193 8.10997 15.6193 7.00033C15.6193 5.89082 14.7115 4.98291 13.6019 4.98291H13.602ZM13.5933 7.71269C13.1993 7.71269 12.88 7.39361 12.88 7.00021C12.88 6.60681 13.1994 6.28798 13.5933 6.28798C13.9873 6.28798 14.3066 6.60705 14.3066 7.00021C14.3066 7.39386 13.9873 7.71269 13.5933 7.71269Z" fill="#00A3DF"/>
<path d="M13.602 9.96533H2.01742C0.907909 9.96533 0 10.8731 0 11.9828C0 13.0923 0.907785 14.0002 2.01742 14.0002H13.602C14.7115 14.0002 15.6193 13.0924 15.6193 11.9828C15.6193 10.8732 14.7115 9.96533 13.6019 9.96533H13.602ZM13.5933 12.6951C13.1993 12.6951 12.88 12.376 12.88 11.9826C12.88 11.5892 13.1994 11.2704 13.5933 11.2704C13.9873 11.2704 14.3066 11.5895 14.3066 11.9826C14.3066 12.3763 13.9873 12.6951 13.5933 12.6951Z" fill="#00A3DF"/>
</svg>
