<svg width="60" height="61" viewBox="0 0 60 61" fill="none" xmlns="http://www.w3.org/2000/svg">
<path d="M84.2993 -11.1808L64.919 -24.3557C63.6777 -25.2148 62.1508 -25.2148 60.9093 -24.3557L42.9611 -12.5173L25.5857 -24.3557C24.3444 -25.2148 22.8174 -25.2148 21.576 -24.3557L1.62289 -11.1808C0.572695 -10.5128 0 -9.36668 0 -8.22139V11.4453C0 12.5907 0.572712 13.7367 1.62289 14.4047L19.7621 26.6247V44.1911C19.7621 45.3365 20.3348 46.4825 21.385 47.1504L40.7652 60.3254C41.3379 60.707 42.1018 60.8981 42.7704 60.8981C43.4391 60.8981 44.1069 60.707 44.7756 60.3254L64.7287 47.1504C65.7789 46.4818 66.3516 45.3364 66.3516 44.1911V26.3383L84.3953 14.5C85.4455 13.8313 86.0182 12.6859 86.0182 11.5406V-8.22156C85.9229 -9.36699 85.3502 -10.513 84.3001 -11.1809L84.2993 -11.1808ZM62.9142 -17.0044L75.898 -8.22122L62.4367 0.657082L49.4528 -8.12609L62.9142 -17.0044ZM42.6747 33.4034L29.6909 24.6202L43.0562 15.837L56.04 24.6202L42.6747 33.4034ZM59.0954 17.8417L46.5891 9.34496V-1.44256L59.0954 7.05421V17.8417ZM39.4287 9.53606L26.9224 17.7464V6.67181L39.4287 -1.53854V9.53606ZM23.4854 -17.0044L36.4692 -8.22122L23.0078 0.657082L10.024 -8.12609L23.4854 -17.0044ZM7.15977 -1.44273L19.6661 7.05404V18.0327L7.15977 9.53589V-1.44273ZM26.8264 31.3032L39.3328 39.8V50.8746L26.8264 42.3778V31.3032ZM46.5886 50.588V39.4181L59.0949 31.2078V42.3777L46.5886 50.588ZM66.2553 17.7466V6.67199L78.7616 -1.53837V9.63153L66.2553 17.7466Z" fill="#CCD2D9" fill-opacity="0.4"/>
</svg>
