<svg width="17" height="16" viewBox="0 0 17 16" fill="none" xmlns="http://www.w3.org/2000/svg">
<path d="M5.0157 10.3896L8.49992 13.6597L11.9841 10.3896H17V15.5976H0.000152588L0 10.3896H5.0157ZM14.9425 13.7011C15.3322 13.7011 15.6486 13.3846 15.6486 12.9927C15.6486 12.603 15.332 12.2866 14.9425 12.2866C14.5505 12.2866 14.2341 12.6032 14.2341 12.9927C14.2341 13.3846 14.5505 13.7011 14.9425 13.7011ZM12.7244 13.7011C13.1141 13.7011 13.4305 13.3846 13.4305 12.9927C13.4305 12.603 13.1139 12.2866 12.7244 12.2866C12.3348 12.2866 12.0184 12.6032 12.0184 12.9927C12.0182 13.3846 12.3348 13.7011 12.7244 13.7011Z" fill="#00A3DF"/>
<path d="M4.93567 8.85312V6.65934L7.37544 8.95052V0H9.62518V8.95052L12.0649 6.65934V8.85312L8.50031 12.1987L4.93567 8.85312Z" fill="#00A3DF"/>
</svg>
