<svg width="102" height="98" viewBox="0 0 102 98" fill="none" xmlns="http://www.w3.org/2000/svg">
<mask id="mask0_1427_1073" style="mask-type:alpha" maskUnits="userSpaceOnUse" x="0" y="0" width="102" height="98">
<rect width="102" height="98" rx="9" fill="#252938"/>
</mask>
<g mask="url(#mask0_1427_1073)">
<path d="M40.5999 -19C35.6676 -19 30.9362 -17.0409 27.4482 -13.5529C23.9594 -10.064 22 -5.3338 22 -0.400124V5.79928C22 12.4443 25.5453 18.5853 31.3005 21.9078C37.0546 25.2303 44.1449 25.2303 49.9001 21.9078C55.6541 18.5853 59.1995 12.4443 59.1995 5.79928V-0.400124C59.1995 -5.33352 57.2404 -10.0638 53.7524 -13.5529C50.2635 -17.0409 45.5333 -19 40.5996 -19H40.5999ZM46.7993 5.80039L46.8004 5.7993C46.8004 8.01466 45.6186 10.0612 43.6995 11.1684C41.7815 12.2766 39.418 12.2766 37.5001 11.1684C35.5821 10.0612 34.4004 8.01441 34.4004 5.7993V-0.400099C34.4004 -2.61545 35.5822 -4.66201 37.5001 -5.76915C39.4182 -6.87737 41.7817 -6.87737 43.6995 -5.76915C45.6187 -4.66201 46.8004 -2.6152 46.8004 -0.400099L46.7993 5.80039Z" fill="#CCD2D9" fill-opacity="0.4"/>
<path d="M115 52.2993V46.0999C115 39.4549 111.455 33.3139 105.7 29.9914C99.9457 26.6689 92.8553 26.6689 87.1002 29.9914C81.3461 33.3139 77.8008 39.4549 77.8008 46.0999V52.2993C77.8008 58.9444 81.3461 65.0854 87.1002 68.4079C92.8553 71.7304 99.9457 71.7304 105.7 68.4079C111.455 65.0854 115 58.9444 115 52.2993ZM102.6 52.2993C102.6 54.5147 101.418 56.5613 99.5004 57.6684C97.5823 58.7766 95.2188 58.7766 93.3009 57.6684C91.3818 56.5613 90.2001 54.5145 90.2001 52.2993V46.0999C90.2001 43.8846 91.3819 41.838 93.3009 40.7309C95.219 39.6227 97.5825 39.6227 99.5004 40.7309C101.418 41.838 102.6 43.8848 102.6 46.0999V52.2993Z" fill="#CCD2D9" fill-opacity="0.4"/>
<path d="M91.5948 -12.0721L35.7952 56.1274C34.3918 57.8411 34.0091 60.1743 34.7908 62.2469C35.5736 64.3195 37.4019 65.8168 39.588 66.1758C41.7742 66.5348 43.9864 65.7001 45.3897 63.9864L101.189 -4.21315V-4.21424C102.593 -5.92792 102.975 -8.25999 102.193 -10.3325C101.411 -12.4063 99.5816 -13.9036 97.3954 -14.2626C95.2093 -14.6205 92.9981 -13.7858 91.5949 -12.0721L91.5948 -12.0721Z" fill="#CCD2D9" fill-opacity="0.4"/>
</g>
</svg>
