<svg width="16" height="14" viewBox="0 0 16 14" fill="none" xmlns="http://www.w3.org/2000/svg">
<path d="M14.775 12.2H2.425C2.16279 12.2 1.95 12.0204 1.95 11.8V1.4C1.95 1.1792 1.73763 1 1.475 1C1.21237 1 1 1.1792 1 1.4V11.8C1 12.4616 1.63935 13 2.425 13H14.775C15.0376 13 15.25 12.8208 15.25 12.6C15.25 12.3792 15.0376 12.2 14.775 12.2Z" fill="#00A3DF" stroke="#00A3DF"/>
<path d="M4.4 10.2633H5.6C5.82116 10.2633 6 10.169 6 10.0528V8.78963C6 8.67341 5.82116 8.5791 5.6 8.5791H4.4C4.17884 8.5791 4 8.67341 4 8.78963V10.0528C4 10.169 4.17884 10.2633 4.4 10.2633Z" fill="#00A3DF"/>
<path d="M10.4 10.2632H11.6C11.8212 10.2632 12 10.1123 12 9.92637V3.86321C12 3.67727 11.8212 3.52637 11.6 3.52637H10.4C10.1788 3.52637 10 3.67727 10 3.86321V9.92637C10 10.1123 10.1788 10.2632 10.4 10.2632Z" fill="#00A3DF"/>
<path d="M7.4 10.2633H8.6C8.82116 10.2633 9 10.1285 9 9.96251V6.35349C9 6.18747 8.82116 6.05273 8.6 6.05273H7.4C7.17884 6.05273 7 6.18747 7 6.35349V9.96251C7 10.1285 7.17884 10.2633 7.4 10.2633Z" fill="#00A3DF"/>
<path d="M14.6 1H13.4C13.1788 1 13 1.15961 13 1.35628V9.90688C13 10.1036 13.1788 10.2632 13.4 10.2632H14.6C14.8212 10.2632 15 10.1036 15 9.90688V1.35628C15 1.15961 14.8212 1 14.6 1Z" fill="#00A3DF"/>
</svg>
