<svg width="97" height="69" viewBox="0 0 97 69" fill="none" xmlns="http://www.w3.org/2000/svg">
<path d="M108.468 -35.8783C107.943 -36.5464 107.393 -37.1947 106.793 -37.7937C105.107 -39.4805 103.125 -40.8619 100.952 -41.9043C98.1801 -43.2344 95.0883 -44 91.8113 -44C91.1492 -44 90.496 -43.9606 89.8477 -43.9015C89.6526 -43.8828 89.4595 -43.8562 89.2654 -43.8335C88.8023 -43.7783 88.3432 -43.7074 87.8899 -43.6226C87.6889 -43.5862 87.4899 -43.5487 87.2929 -43.5054C86.7785 -43.3941 86.2731 -43.262 85.7746 -43.1142C85.6682 -43.0827 85.5588 -43.0581 85.4524 -43.0256C84.8553 -42.8374 84.2701 -42.6216 83.6966 -42.3832C83.541 -42.3181 83.3902 -42.2452 83.2365 -42.1772C82.8129 -41.989 82.3971 -41.79 81.9892 -41.5772C81.8108 -41.4836 81.6365 -41.389 81.4611 -41.2905C81.0532 -41.0599 80.6531 -40.8176 80.262 -40.5614C80.1319 -40.4767 79.9989 -40.3978 79.8708 -40.3102C79.8245 -40.2786 79.7762 -40.252 79.7299 -40.2195L15.1742 4.67491C15.0569 4.75668 14.9466 4.84733 14.8293 4.9291C14.4717 5.1833 14.1199 5.44342 13.7731 5.71142C13.5918 5.85133 13.4125 5.99223 13.2332 6.13509C12.8903 6.41098 12.5524 6.69474 12.2194 6.98243C12.0637 7.1184 11.906 7.24944 11.7514 7.38739C11.309 7.78248 10.8774 8.1894 10.4547 8.60616C10.4222 8.63868 10.3868 8.66823 10.3542 8.70075C9.90199 9.153 9.46554 9.61902 9.0379 10.0939C8.90686 10.2397 8.78076 10.3905 8.65267 10.5393C8.35905 10.8782 8.06939 11.2201 7.78859 11.5708C7.64474 11.7492 7.50483 11.9295 7.36491 12.1107C7.10085 12.4526 6.84371 12.7985 6.59246 13.1492C6.46438 13.3276 6.33531 13.5049 6.21116 13.6862C5.92445 14.103 5.64758 14.5276 5.37958 14.9572C5.30569 15.0735 5.22884 15.1858 5.1579 15.303C4.82291 15.8509 4.50366 16.4095 4.19922 16.9751C4.1204 17.1219 4.04651 17.2746 3.97064 17.4224C3.74895 17.848 3.53416 18.2766 3.32922 18.7121C3.23365 18.917 3.14103 19.1249 3.04939 19.3318C2.87303 19.7289 2.7016 20.1299 2.53903 20.5338C2.45332 20.7467 2.36858 20.9595 2.28582 21.1733C2.11734 21.6157 1.96266 22.062 1.81289 22.5123C1.75476 22.6857 1.6917 22.8581 1.63652 23.0335C1.44046 23.6562 1.25818 24.2868 1.09562 24.9232C1.06606 25.0405 1.04241 25.1607 1.01384 25.2779C0.885754 25.8021 0.768506 26.3302 0.663089 26.8642C0.619736 27.0849 0.582297 27.3076 0.544856 27.5313C0.467021 27.9746 0.39608 28.4209 0.334006 28.8702C0.301491 29.1087 0.269962 29.3481 0.242375 29.5875C0.18917 30.0506 0.146803 30.5186 0.111334 30.9876C0.0955696 31.2024 0.0748805 31.4142 0.0620722 31.63C0.0256174 32.3118 0 32.9956 0 33.6863C0 53.1887 15.8098 68.9985 35.3122 68.9985C36.0029 68.9985 36.6867 68.9729 37.3675 68.9344C37.5823 68.9216 37.7951 68.9019 38.0099 68.8852C38.4789 68.8497 38.9459 68.8073 39.41 68.7541C39.6504 68.7255 39.8888 68.695 40.1272 68.6625C40.5765 68.6014 41.0229 68.5315 41.4662 68.4516C41.6879 68.4122 41.9116 68.3758 42.1333 68.3334C42.6673 68.229 43.1944 68.1117 43.7195 67.9827C43.8368 67.9541 43.957 67.9305 44.0742 67.9009C44.7117 67.7383 45.3413 67.556 45.964 67.36C46.1394 67.3048 46.3118 67.2417 46.4852 67.1836C46.9355 67.0339 47.3818 66.8772 47.8242 66.7107C48.039 66.6289 48.2518 66.5442 48.4637 66.4575C48.8686 66.2949 49.2686 66.1254 49.6657 65.9471C49.8736 65.8555 50.0805 65.7638 50.2854 65.6673C50.7209 65.4623 51.1495 65.2475 51.5751 65.0258C51.7239 64.948 51.8756 64.8761 52.0224 64.7973C52.589 64.4918 53.1466 64.1726 53.6944 63.8386C53.8117 63.7667 53.925 63.6888 54.0403 63.6169C54.4698 63.3469 54.8935 63.0721 55.3113 62.7853C55.4926 62.6612 55.6699 62.5311 55.8483 62.404C56.199 62.1528 56.5458 61.8956 56.8867 61.6316C57.068 61.4917 57.2483 61.3508 57.4267 61.2079C57.7774 60.9271 58.1183 60.6374 58.4582 60.3438C58.607 60.2157 58.7558 60.0896 58.9036 59.9586C59.3785 59.532 59.8455 59.0945 60.2967 58.6423C60.3293 58.6097 60.3588 58.5762 60.3913 58.5418C60.8091 58.121 61.215 57.6875 61.6101 57.2451C61.7471 57.0914 61.8801 56.9328 62.0151 56.7771C62.3027 56.4441 62.5875 56.1072 62.8624 55.7633C63.0053 55.585 63.1461 55.4056 63.2861 55.2234C63.5531 54.8756 63.8132 54.5238 64.0684 54.1672C64.1521 54.0509 64.2408 53.9396 64.3226 53.8223L109.22 -10.7334C109.251 -10.7788 109.279 -10.828 109.31 -10.8743C109.398 -11.0024 109.477 -11.1354 109.561 -11.2655C109.817 -11.6566 110.06 -12.0567 110.29 -12.4646C110.388 -12.6399 110.484 -12.8153 110.577 -12.9927C110.792 -13.4006 110.99 -13.8164 111.177 -14.24C111.245 -14.3937 111.318 -14.5435 111.383 -14.7002C111.622 -15.2736 111.838 -15.8588 112.026 -16.4559C112.059 -16.5623 112.084 -16.6707 112.114 -16.7781C112.263 -17.2766 112.392 -17.784 112.505 -18.2964C112.549 -18.4944 112.584 -18.6934 112.623 -18.8935C112.707 -19.3467 112.776 -19.8058 112.834 -20.2689C112.856 -20.462 112.883 -20.6561 112.901 -20.8512C112.961 -21.4985 113 -22.1517 113 -22.8138C113 -23.5459 112.964 -24.2671 112.892 -24.9804C112.475 -29.0741 110.88 -32.8114 108.47 -35.8796L108.468 -35.8783ZM52.2159 46.4066C51.9578 46.7495 51.6957 47.0904 51.4188 47.4156C51.1774 47.6983 50.9262 47.9693 50.67 48.2392C50.3823 48.5427 50.0867 48.8353 49.7833 49.1191C49.5291 49.3575 49.2729 49.5979 49.0079 49.8236C48.6128 50.1586 48.1999 50.4719 47.7822 50.7773C47.5891 50.9182 47.4038 51.0739 47.2058 51.2098C46.5732 51.6394 45.919 52.0315 45.2451 52.3892C45.0756 52.4799 44.8973 52.5547 44.7268 52.6395C44.1899 52.9065 43.646 53.1567 43.0883 53.3765C42.8696 53.4641 42.645 53.54 42.4233 53.6208C41.8922 53.81 41.3523 53.9795 40.8074 54.1263C40.5729 54.1903 40.3384 54.2534 40.101 54.3085C39.5335 54.4396 38.9581 54.542 38.3778 54.6268C38.16 54.6593 37.9452 54.7016 37.7255 54.7273C36.9274 54.8169 36.1235 54.8731 35.3126 54.8731C23.6303 54.8731 14.1253 45.368 14.1253 33.6858C14.1253 32.8749 14.1814 32.0709 14.2721 31.2758C14.2977 31.0551 14.3401 30.8403 14.3726 30.6235C14.4573 30.0442 14.5588 29.4678 14.6908 28.9003C14.746 28.6629 14.809 28.4284 14.8731 28.1939C15.0199 27.647 15.1884 27.1091 15.3785 26.578C15.4573 26.3544 15.5352 26.1317 15.6229 25.913C15.8436 25.3553 16.0929 24.8095 16.3618 24.2715C16.4466 24.1011 16.5215 23.9237 16.6101 23.7562C16.9678 23.0823 17.3619 22.4281 17.7895 21.7955C17.9255 21.5965 18.0801 21.4113 18.223 21.2162C18.5265 20.7984 18.8398 20.3866 19.1748 19.9915C19.4004 19.7245 19.6408 19.4703 19.8793 19.2161C20.163 18.9126 20.4567 18.616 20.7611 18.3274C21.0291 18.0732 21.302 17.8199 21.5828 17.5805C21.908 17.3027 22.2498 17.0426 22.5927 16.7824C26.1396 14.1055 30.537 12.4986 35.3127 12.4986C46.995 12.4986 56.5 22.0036 56.5 33.6859C56.5 38.4616 54.8928 42.8585 52.2159 46.4066ZM98.7367 -21.4422C98.72 -21.3565 98.6914 -21.2836 98.6717 -21.2008C98.588 -20.8491 98.4865 -20.5062 98.3534 -20.1771C98.318 -20.0914 98.2815 -20.0116 98.2451 -19.9298C98.0795 -19.5623 97.8943 -19.2037 97.6707 -18.8736L97.6677 -18.8697C96.3957 -16.9898 94.246 -15.7524 91.8122 -15.7524C87.9183 -15.7524 84.7498 -18.9209 84.7498 -22.8148C84.7498 -25.2484 85.9872 -27.3983 87.8661 -28.6683L87.87 -28.6713C88.202 -28.8959 88.5597 -29.0792 88.9282 -29.2457C89.01 -29.2821 89.0888 -29.3196 89.1755 -29.354C89.5046 -29.487 89.8474 -29.5895 90.1992 -29.6733C90.2829 -29.693 90.3549 -29.7215 90.4406 -29.7383C90.8839 -29.826 91.3421 -29.8772 91.8121 -29.8772C95.706 -29.8772 98.8745 -26.7087 98.8745 -22.8148C98.8745 -22.3448 98.8234 -21.8866 98.7367 -21.4422Z" fill="#CCD2D9" fill-opacity="0.4"/>
</svg>
