<svg width="15" height="15" viewBox="0 0 15 15" fill="none" xmlns="http://www.w3.org/2000/svg">
<path d="M7.35874 14.9998C12.1191 14.9998 14.7173 13.7857 14.7173 13.1603L14.7171 9.06201C13.1691 9.99027 10.2511 10.4714 7.35854 10.4714C4.46602 10.4714 1.54802 9.9903 0 9.06201V13.1601C0 13.7855 2.59823 14.9998 7.35854 14.9998H7.35874Z" fill="#00A3DF"/>
<path d="M14.7171 1.83953C14.7171 2.85563 11.4225 3.67927 7.35854 3.67927C3.29446 3.67927 0 2.85563 0 1.83953C0 0.823591 3.29457 0 7.35854 0C11.4224 0 14.7171 0.823641 14.7171 1.83953Z" fill="#00A3DF"/>
<path d="M7.35874 9.33963C12.1191 9.33963 14.7173 8.12552 14.7173 7.5001L14.7171 3.40186C13.1691 4.33011 10.2511 4.81125 7.35854 4.81125C4.46602 4.81125 1.54802 4.33014 0 3.40186V7.4999C0 8.12532 2.59823 9.33963 7.35854 9.33963H7.35874Z" fill="#00A3DF"/>
</svg>
