<svg width="17" height="17" viewBox="0 0 17 17" fill="none" xmlns="http://www.w3.org/2000/svg">
<path d="M6 11.3896V13.2866H11V11.3896H17V16.5976H0.000152588L0 11.3896H6ZM14.9425 14.7011C15.3322 14.7011 15.6486 14.3846 15.6486 13.9927C15.6486 13.603 15.332 13.2866 14.9425 13.2866C14.5505 13.2866 14.2341 13.6032 14.2341 13.9927C14.2341 14.3846 14.5505 14.7011 14.9425 14.7011ZM12.7244 14.7011C13.1141 14.7011 13.4305 14.3846 13.4305 13.9927C13.4305 13.603 13.1139 13.2866 12.7244 13.2866C12.3348 13.2866 12.0184 13.6032 12.0184 13.9927C12.0182 14.3846 12.3348 14.7011 12.7244 14.7011Z" fill="#00A3DF"/>
<path d="M12.0629 3.34512V5.5389L9.6231 3.24772V12.1982H7.37336V3.24772L4.93359 5.5389V3.34512L8.49823 -0.000457764L12.0629 3.34512Z" fill="#00A3DF"/>
</svg>
