<svg width="22" height="16" viewBox="0 0 22 16" fill="none" xmlns="http://www.w3.org/2000/svg">
<path fill-rule="evenodd" clip-rule="evenodd" d="M17.753 0.849381C19.282 0.849381 20.4711 2.03854 20.4711 3.56744C20.4711 4.7566 19.7916 5.69104 18.7723 6.11563C20.641 6.62528 22 8.23923 22 10.2778V12.911C20.3012 13.5905 18.6872 13.9303 16.9884 13.7604V11.297C16.9884 9.59822 16.2238 8.06932 15.0347 6.96496C15.5443 6.54016 16.054 6.28545 16.6486 6.11558C15.7142 5.69078 14.9498 4.75655 14.9498 3.56739C14.9498 2.03844 16.224 0.84933 17.7529 0.84933L17.753 0.849381ZM4.33196 0.849381C5.86091 0.849381 7.05002 2.03854 7.05002 3.56744C7.05002 4.7566 6.37051 5.69104 5.35121 6.11563C5.94587 6.28551 6.54037 6.54043 6.96516 6.96501C5.776 8.06932 5.09649 9.59826 5.09649 11.2971V13.7605C3.39767 13.9303 1.69886 13.5906 0 12.9111V10.2778C0 8.23929 1.44409 6.62533 3.31277 6.11568C2.29347 5.69088 1.52895 4.75665 1.52895 3.56749C1.52895 2.03854 2.80317 0.849431 4.33206 0.849431L4.33196 0.849381ZM11.0423 0C12.8261 0 14.27 1.52895 14.27 3.31277C14.27 4.6718 13.4206 5.86096 12.2314 6.37061C14.4399 6.88026 16.1386 8.9188 16.1386 11.2973V14.525C12.741 15.8841 9.34299 15.8841 5.94566 14.525V11.2973C5.94566 8.919 7.55962 6.88026 9.76808 6.37061C8.57892 5.86096 7.72954 4.6718 7.72954 3.31277C7.72954 1.52895 9.17362 0 11.0423 0H11.0423Z" fill="#00A3DF"/>
</svg>
