<svg width="12" height="15" viewBox="0 0 12 15" fill="none" xmlns="http://www.w3.org/2000/svg">
<path d="M8.78556 0.65688C8.78556 0.414377 8.92278 0.352516 9.08989 0.524548L11.5201 2.99945C11.6872 3.16717 11.6316 3.30843 11.3957 3.30843H8.99989C8.88151 3.30843 8.78554 3.20964 8.78554 3.08777L8.78556 0.65688ZM11.9999 14.559C11.9999 14.6759 11.9548 14.788 11.8747 14.8707C11.7942 14.9535 11.6851 15 11.5715 15H0.428404C0.191628 15 0 14.8024 0 14.559V0.441006C0 0.197581 0.191628 0 0.428404 0H7.92858C8.04218 0 8.1513 0.0464692 8.23172 0.129252C8.31214 0.212037 8.35727 0.324059 8.35727 0.440998V3.30887C8.35727 3.42582 8.40242 3.53815 8.48283 3.62092C8.56325 3.7034 8.67207 3.74987 8.78567 3.74987H11.5716C11.6852 3.74987 11.7943 3.79634 11.8747 3.87912C11.9549 3.96191 12 4.07424 12 4.19118L11.9999 14.559Z" fill="#00A3DF"/>
</svg>
