<svg width="60" height="66" viewBox="0 0 60 66" fill="none" xmlns="http://www.w3.org/2000/svg">
<path d="M40.5148 -15.0991C18.3171 -15.0991 0.322266 2.8962 0.322266 25.0934C0.322266 47.2912 18.3176 65.286 40.5148 65.286C62.7126 65.286 80.7074 47.2907 80.7074 25.0934C80.7074 2.89571 62.7121 -15.0991 40.5148 -15.0991ZM40.5148 -1.23962C42.0462 -1.23962 43.2865 0.00169849 43.2865 1.53204V23.9666L57.1895 37.8261C58.2723 38.9089 58.2723 40.6849 57.1895 41.7677C56.1068 42.8504 54.3308 42.8504 53.248 41.7677L38.5658 27.0419C38.0641 26.5402 37.7431 25.8586 37.7431 25.0929V1.53204C37.7431 0.000683784 38.9844 -1.23962 40.5148 -1.23962H40.5148Z" fill="#CCD2D9" fill-opacity="0.4"/>
</svg>
